<?xml version="1.0" encoding="UTF-8" standalone="no"?>
<svg
    height="161mm"
    viewBox="0 0 75 161"
    width="75mm"
    xmlns="http://www.w3.org/2000/svg">
    <g
        fill="none"
        stroke="#000000"
        stroke-width="0.4"
        transform="translate( 1 1 )">
        <path
            d="M 0 11.125 a 11.125 11.125 90 0 1 11.125 -11.125 h 50.15 a 11.125 11.125 90 0 1 11.125 11.125 v 135.95 a 11.125 11.125 90 0 1 -11.125 11.125 h -50.15 a 11.125 11.125 90 0 1 -11.125 -11.125 z" />
        <path
            d="M 6.45 29.95 v -15 a 8.5 8.5 90 0 1 8.5 -8.5 h 15 a 8.5 8.5 135 0 1 6.01040764008565 14.5104076400857 l -15 15 A 8.5 8.5 135 0 1 6.45 29.95 z"
            stroke="#00ff00" />
    </g>
</svg>
